<svg xmlns="http://www.w3.org/2000/svg" xmlns:xlink="http://www.w3.org/1999/xlink" width="1500" zoomAndPan="magnify" viewBox="0 0 1125 1124.99995" height="1500" preserveAspectRatio="xMidYMid meet" version="1.0"><defs><g/><linearGradient x1="0" gradientTransform="matrix(0.75, 0, 0, 0.75, 0.000025, -0.00002)" y1="750" x2="1499.999937" gradientUnits="userSpaceOnUse" y2="750" id="ffc3b13735"><stop stop-opacity="1" stop-color="rgb(100%, 87.098694%, 34.899902%)" offset="0"/><stop stop-opacity="1" stop-color="rgb(100%, 86.981201%, 34.881592%)" offset="0.0078125"/><stop stop-opacity="1" stop-color="rgb(100%, 86.74469%, 34.843445%)" offset="0.015625"/><stop stop-opacity="1" stop-color="rgb(100%, 86.508179%, 34.806824%)" offset="0.0234375"/><stop stop-opacity="1" stop-color="rgb(100%, 86.273193%, 34.770203%)" offset="0.03125"/><stop stop-opacity="1" stop-color="rgb(100%, 86.036682%, 34.733582%)" offset="0.0390625"/><stop stop-opacity="1" stop-color="rgb(100%, 85.801697%, 34.69696%)" offset="0.046875"/><stop stop-opacity="1" stop-color="rgb(100%, 85.565186%, 34.660339%)" offset="0.0546875"/><stop stop-opacity="1" stop-color="rgb(100%, 85.328674%, 34.623718%)" offset="0.0625"/><stop stop-opacity="1" stop-color="rgb(100%, 85.093689%, 34.587097%)" offset="0.0703125"/><stop stop-opacity="1" stop-color="rgb(100%, 84.857178%, 34.550476%)" offset="0.078125"/><stop stop-opacity="1" stop-color="rgb(100%, 84.620667%, 34.513855%)" offset="0.0859375"/><stop stop-opacity="1" stop-color="rgb(100%, 84.385681%, 34.477234%)" offset="0.09375"/><stop stop-opacity="1" stop-color="rgb(100%, 84.14917%, 34.440613%)" offset="0.101562"/><stop stop-opacity="1" stop-color="rgb(100%, 83.914185%, 34.403992%)" offset="0.109375"/><stop stop-opacity="1" stop-color="rgb(100%, 83.677673%, 34.367371%)" offset="0.117188"/><stop stop-opacity="1" stop-color="rgb(100%, 83.441162%, 34.33075%)" offset="0.125"/><stop stop-opacity="1" stop-color="rgb(100%, 83.206177%, 34.292603%)" offset="0.132812"/><stop stop-opacity="1" stop-color="rgb(100%, 82.969666%, 34.255981%)" offset="0.140625"/><stop stop-opacity="1" stop-color="rgb(100%, 82.73468%, 34.21936%)" offset="0.148438"/><stop stop-opacity="1" stop-color="rgb(100%, 82.498169%, 34.182739%)" offset="0.15625"/><stop stop-opacity="1" stop-color="rgb(100%, 82.261658%, 34.146118%)" offset="0.164062"/><stop stop-opacity="1" stop-color="rgb(100%, 82.026672%, 34.109497%)" offset="0.171875"/><stop stop-opacity="1" stop-color="rgb(100%, 81.790161%, 34.072876%)" offset="0.179688"/><stop stop-opacity="1" stop-color="rgb(100%, 81.55365%, 34.036255%)" offset="0.1875"/><stop stop-opacity="1" stop-color="rgb(100%, 81.318665%, 33.999634%)" offset="0.195312"/><stop stop-opacity="1" stop-color="rgb(100%, 81.082153%, 33.963013%)" offset="0.203125"/><stop stop-opacity="1" stop-color="rgb(100%, 80.847168%, 33.926392%)" offset="0.210938"/><stop stop-opacity="1" stop-color="rgb(100%, 80.610657%, 33.889771%)" offset="0.21875"/><stop stop-opacity="1" stop-color="rgb(100%, 80.374146%, 33.853149%)" offset="0.226562"/><stop stop-opacity="1" stop-color="rgb(100%, 80.13916%, 33.816528%)" offset="0.234375"/><stop stop-opacity="1" stop-color="rgb(100%, 79.902649%, 33.779907%)" offset="0.242188"/><stop stop-opacity="1" stop-color="rgb(100%, 79.666138%, 33.743286%)" offset="0.25"/><stop stop-opacity="1" stop-color="rgb(100%, 79.431152%, 33.705139%)" offset="0.257812"/><stop stop-opacity="1" stop-color="rgb(100%, 79.194641%, 33.668518%)" offset="0.265625"/><stop stop-opacity="1" stop-color="rgb(100%, 78.959656%, 33.631897%)" offset="0.273438"/><stop stop-opacity="1" stop-color="rgb(100%, 78.723145%, 33.595276%)" offset="0.28125"/><stop stop-opacity="1" stop-color="rgb(100%, 78.486633%, 33.558655%)" offset="0.289062"/><stop stop-opacity="1" stop-color="rgb(100%, 78.251648%, 33.522034%)" offset="0.296875"/><stop stop-opacity="1" stop-color="rgb(100%, 78.015137%, 33.485413%)" offset="0.304688"/><stop stop-opacity="1" stop-color="rgb(100%, 77.778625%, 33.448792%)" offset="0.3125"/><stop stop-opacity="1" stop-color="rgb(100%, 77.54364%, 33.41217%)" offset="0.320312"/><stop stop-opacity="1" stop-color="rgb(100%, 77.307129%, 33.375549%)" offset="0.328125"/><stop stop-opacity="1" stop-color="rgb(100%, 77.072144%, 33.338928%)" offset="0.335938"/><stop stop-opacity="1" stop-color="rgb(100%, 76.835632%, 33.302307%)" offset="0.34375"/><stop stop-opacity="1" stop-color="rgb(100%, 76.599121%, 33.265686%)" offset="0.351562"/><stop stop-opacity="1" stop-color="rgb(100%, 76.364136%, 33.229065%)" offset="0.359375"/><stop stop-opacity="1" stop-color="rgb(100%, 76.127625%, 33.192444%)" offset="0.367188"/><stop stop-opacity="1" stop-color="rgb(100%, 75.891113%, 33.154297%)" offset="0.375"/><stop stop-opacity="1" stop-color="rgb(100%, 75.656128%, 33.117676%)" offset="0.382812"/><stop stop-opacity="1" stop-color="rgb(100%, 75.419617%, 33.081055%)" offset="0.390625"/><stop stop-opacity="1" stop-color="rgb(100%, 75.184631%, 33.044434%)" offset="0.398438"/><stop stop-opacity="1" stop-color="rgb(100%, 74.94812%, 33.007812%)" offset="0.40625"/><stop stop-opacity="1" stop-color="rgb(100%, 74.711609%, 32.971191%)" offset="0.414062"/><stop stop-opacity="1" stop-color="rgb(100%, 74.476624%, 32.93457%)" offset="0.421875"/><stop stop-opacity="1" stop-color="rgb(100%, 74.240112%, 32.897949%)" offset="0.429688"/><stop stop-opacity="1" stop-color="rgb(100%, 74.003601%, 32.861328%)" offset="0.4375"/><stop stop-opacity="1" stop-color="rgb(100%, 73.768616%, 32.824707%)" offset="0.445312"/><stop stop-opacity="1" stop-color="rgb(100%, 73.532104%, 32.788086%)" offset="0.453125"/><stop stop-opacity="1" stop-color="rgb(100%, 73.297119%, 32.751465%)" offset="0.460938"/><stop stop-opacity="1" stop-color="rgb(100%, 73.060608%, 32.714844%)" offset="0.46875"/><stop stop-opacity="1" stop-color="rgb(100%, 72.824097%, 32.678223%)" offset="0.476562"/><stop stop-opacity="1" stop-color="rgb(100%, 72.589111%, 32.641602%)" offset="0.484375"/><stop stop-opacity="1" stop-color="rgb(100%, 72.3526%, 32.60498%)" offset="0.492188"/><stop stop-opacity="1" stop-color="rgb(100%, 72.116089%, 32.566833%)" offset="0.5"/><stop stop-opacity="1" stop-color="rgb(100%, 71.881104%, 32.530212%)" offset="0.507812"/><stop stop-opacity="1" stop-color="rgb(100%, 71.644592%, 32.493591%)" offset="0.515625"/><stop stop-opacity="1" stop-color="rgb(100%, 71.409607%, 32.45697%)" offset="0.523438"/><stop stop-opacity="1" stop-color="rgb(100%, 71.173096%, 32.420349%)" offset="0.53125"/><stop stop-opacity="1" stop-color="rgb(100%, 70.936584%, 32.383728%)" offset="0.539062"/><stop stop-opacity="1" stop-color="rgb(100%, 70.701599%, 32.347107%)" offset="0.546875"/><stop stop-opacity="1" stop-color="rgb(100%, 70.465088%, 32.310486%)" offset="0.554688"/><stop stop-opacity="1" stop-color="rgb(100%, 70.228577%, 32.273865%)" offset="0.5625"/><stop stop-opacity="1" stop-color="rgb(100%, 69.993591%, 32.237244%)" offset="0.570312"/><stop stop-opacity="1" stop-color="rgb(100%, 69.75708%, 32.200623%)" offset="0.578125"/><stop stop-opacity="1" stop-color="rgb(100%, 69.522095%, 32.164001%)" offset="0.585938"/><stop stop-opacity="1" stop-color="rgb(100%, 69.285583%, 32.12738%)" offset="0.59375"/><stop stop-opacity="1" stop-color="rgb(100%, 69.049072%, 32.090759%)" offset="0.601562"/><stop stop-opacity="1" stop-color="rgb(100%, 68.814087%, 32.054138%)" offset="0.609375"/><stop stop-opacity="1" stop-color="rgb(100%, 68.577576%, 32.017517%)" offset="0.617188"/><stop stop-opacity="1" stop-color="rgb(100%, 68.341064%, 31.97937%)" offset="0.625"/><stop stop-opacity="1" stop-color="rgb(100%, 68.106079%, 31.942749%)" offset="0.632812"/><stop stop-opacity="1" stop-color="rgb(100%, 67.869568%, 31.906128%)" offset="0.640625"/><stop stop-opacity="1" stop-color="rgb(100%, 67.634583%, 31.869507%)" offset="0.648438"/><stop stop-opacity="1" stop-color="rgb(100%, 67.398071%, 31.832886%)" offset="0.65625"/><stop stop-opacity="1" stop-color="rgb(100%, 67.16156%, 31.796265%)" offset="0.664062"/><stop stop-opacity="1" stop-color="rgb(100%, 66.926575%, 31.759644%)" offset="0.671875"/><stop stop-opacity="1" stop-color="rgb(100%, 66.690063%, 31.723022%)" offset="0.679688"/><stop stop-opacity="1" stop-color="rgb(100%, 66.453552%, 31.686401%)" offset="0.6875"/><stop stop-opacity="1" stop-color="rgb(100%, 66.218567%, 31.64978%)" offset="0.695312"/><stop stop-opacity="1" stop-color="rgb(100%, 65.982056%, 31.613159%)" offset="0.703125"/><stop stop-opacity="1" stop-color="rgb(100%, 65.74707%, 31.576538%)" offset="0.710938"/><stop stop-opacity="1" stop-color="rgb(100%, 65.510559%, 31.539917%)" offset="0.71875"/><stop stop-opacity="1" stop-color="rgb(100%, 65.274048%, 31.503296%)" offset="0.726562"/><stop stop-opacity="1" stop-color="rgb(100%, 65.039062%, 31.466675%)" offset="0.734375"/><stop stop-opacity="1" stop-color="rgb(100%, 64.802551%, 31.428528%)" offset="0.742188"/><stop stop-opacity="1" stop-color="rgb(100%, 64.56604%, 31.391907%)" offset="0.75"/><stop stop-opacity="1" stop-color="rgb(100%, 64.331055%, 31.355286%)" offset="0.757812"/><stop stop-opacity="1" stop-color="rgb(100%, 64.094543%, 31.318665%)" offset="0.765625"/><stop stop-opacity="1" stop-color="rgb(100%, 63.859558%, 31.282043%)" offset="0.773438"/><stop stop-opacity="1" stop-color="rgb(100%, 63.623047%, 31.245422%)" offset="0.78125"/><stop stop-opacity="1" stop-color="rgb(100%, 63.386536%, 31.208801%)" offset="0.789062"/><stop stop-opacity="1" stop-color="rgb(100%, 63.15155%, 31.17218%)" offset="0.796875"/><stop stop-opacity="1" stop-color="rgb(100%, 62.915039%, 31.135559%)" offset="0.804688"/><stop stop-opacity="1" stop-color="rgb(100%, 62.678528%, 31.098938%)" offset="0.8125"/><stop stop-opacity="1" stop-color="rgb(100%, 62.443542%, 31.062317%)" offset="0.820312"/><stop stop-opacity="1" stop-color="rgb(100%, 62.207031%, 31.025696%)" offset="0.828125"/><stop stop-opacity="1" stop-color="rgb(100%, 61.972046%, 30.989075%)" offset="0.835938"/><stop stop-opacity="1" stop-color="rgb(100%, 61.735535%, 30.952454%)" offset="0.84375"/><stop stop-opacity="1" stop-color="rgb(100%, 61.499023%, 30.915833%)" offset="0.851562"/><stop stop-opacity="1" stop-color="rgb(100%, 61.264038%, 30.879211%)" offset="0.859375"/><stop stop-opacity="1" stop-color="rgb(100%, 61.027527%, 30.841064%)" offset="0.867188"/><stop stop-opacity="1" stop-color="rgb(100%, 60.791016%, 30.804443%)" offset="0.875"/><stop stop-opacity="1" stop-color="rgb(100%, 60.55603%, 30.767822%)" offset="0.882812"/><stop stop-opacity="1" stop-color="rgb(100%, 60.319519%, 30.731201%)" offset="0.890625"/><stop stop-opacity="1" stop-color="rgb(100%, 60.084534%, 30.69458%)" offset="0.898438"/><stop stop-opacity="1" stop-color="rgb(100%, 59.848022%, 30.657959%)" offset="0.90625"/><stop stop-opacity="1" stop-color="rgb(100%, 59.611511%, 30.621338%)" offset="0.914062"/><stop stop-opacity="1" stop-color="rgb(100%, 59.376526%, 30.584717%)" offset="0.921875"/><stop stop-opacity="1" stop-color="rgb(100%, 59.140015%, 30.548096%)" offset="0.929688"/><stop stop-opacity="1" stop-color="rgb(100%, 58.903503%, 30.511475%)" offset="0.9375"/><stop stop-opacity="1" stop-color="rgb(100%, 58.668518%, 30.474854%)" offset="0.945312"/><stop stop-opacity="1" stop-color="rgb(100%, 58.432007%, 30.438232%)" offset="0.953125"/><stop stop-opacity="1" stop-color="rgb(100%, 58.197021%, 30.401611%)" offset="0.960938"/><stop stop-opacity="1" stop-color="rgb(100%, 57.96051%, 30.36499%)" offset="0.96875"/><stop stop-opacity="1" stop-color="rgb(100%, 57.723999%, 30.328369%)" offset="0.976562"/><stop stop-opacity="1" stop-color="rgb(100%, 57.489014%, 30.291748%)" offset="0.984375"/><stop stop-opacity="1" stop-color="rgb(100%, 57.252502%, 30.253601%)" offset="0.992188"/><stop stop-opacity="1" stop-color="rgb(100%, 57.015991%, 30.21698%)" offset="1"/></linearGradient></defs><rect x="-112.5" width="1350" fill="#ffffff" y="-112.499995" height="1349.99994" fill-opacity="1"/><rect x="-112.5" fill="url(#ffc3b13735)" width="1350" y="-112.499995" height="1349.99994"/><g fill="#f4f8f4" fill-opacity="1"><g transform="translate(212.78334, 548.457237)"><g><path d="M 3.28125 1.6875 C 0.382812 -9.820312 -1.898438 -24.695312 -3.578125 -42.9375 C -5.117188 -58.550781 -6.273438 -78.707031 -7.046875 -103.40625 C -7.816406 -128.113281 -7.484375 -158.21875 -6.046875 -193.71875 C -5.628906 -195.707031 -4.660156 -197.5625 -3.140625 -199.28125 C -1.628906 -201.007812 -0.0234375 -202.578125 1.671875 -203.984375 C 3.554688 -205.429688 5.742188 -206.773438 8.234375 -208.015625 C 10.566406 -209.203125 12.832031 -210.28125 15.03125 -211.25 C 16.875 -212.113281 18.847656 -212.828125 20.953125 -213.390625 C 23.066406 -213.953125 24.878906 -214.253906 26.390625 -214.296875 C 24.367188 -197.140625 22.84375 -181.675781 21.8125 -167.90625 C 20.789062 -154.144531 20.097656 -142.304688 19.734375 -132.390625 C 19.265625 -120.753906 19.078125 -110.519531 19.171875 -101.6875 C 18.546875 -92.070312 18.359375 -82.578125 18.609375 -73.203125 C 18.859375 -63.835938 19.367188 -55.054688 20.140625 -46.859375 C 20.921875 -38.671875 21.828125 -31.414062 22.859375 -25.09375 C 23.898438 -18.769531 24.894531 -13.847656 25.84375 -10.328125 C 28.832031 0.191406 32.816406 8.039062 37.796875 13.21875 C 42.773438 18.40625 49.050781 19.984375 56.625 17.953125 C 62.957031 16.253906 68.09375 11.671875 72.03125 4.203125 C 75.976562 -3.265625 79.117188 -11.984375 81.453125 -21.953125 C 83.785156 -31.921875 85.28125 -42.367188 85.9375 -53.296875 C 86.59375 -64.234375 86.738281 -73.90625 86.375 -82.3125 C 86.34375 -83.820312 86.175781 -85.851562 85.875 -88.40625 C 85.226562 -99.9375 84.703125 -112.816406 84.296875 -127.046875 C 83.867188 -139.191406 83.554688 -153.539062 83.359375 -170.09375 C 83.171875 -186.65625 83.179688 -204.773438 83.390625 -224.453125 C 84.421875 -226.242188 85.695312 -227.816406 87.21875 -229.171875 C 88.75 -230.523438 90.144531 -231.65625 91.40625 -232.5625 C 92.976562 -233.738281 94.617188 -234.648438 96.328125 -235.296875 C 97.992188 -236.117188 99.796875 -236.789062 101.734375 -237.3125 C 103.316406 -237.738281 105.203125 -238.101562 107.390625 -238.40625 C 109.578125 -238.707031 111.820312 -238.789062 114.125 -238.65625 C 113.15625 -228.195312 112.378906 -217.367188 111.796875 -206.171875 C 111.210938 -194.972656 110.769531 -184.617188 110.46875 -175.109375 C 110.039062 -164.046875 109.765625 -153.117188 109.640625 -142.328125 C 108.984375 -128.566406 108.78125 -116.289062 109.03125 -105.5 C 109.28125 -94.71875 109.796875 -84.851562 110.578125 -75.90625 C 111.367188 -66.96875 112.347656 -58.738281 113.515625 -51.21875 C 114.691406 -43.707031 115.867188 -36.332031 117.046875 -29.09375 C 118.023438 -23.320312 119.351562 -18.019531 121.03125 -13.1875 C 122.550781 -8.863281 124.34375 -4.617188 126.40625 -0.453125 C 128.46875 3.710938 131.050781 6.984375 134.15625 9.359375 C 133.59375 10.828125 132.585938 12.035156 131.140625 12.984375 C 129.703125 13.941406 128.148438 14.832031 126.484375 15.65625 C 124.648438 16.519531 122.585938 17.257812 120.296875 17.875 C 115.710938 19.101562 111.550781 17.148438 107.8125 12.015625 C 104.082031 6.878906 100.457031 -1.90625 96.9375 -14.34375 C 96.269531 -11.15625 95.019531 -7.003906 93.1875 -1.890625 C 91.351562 3.222656 88.742188 8.453125 85.359375 13.796875 C 81.984375 19.140625 77.703125 24.109375 72.515625 28.703125 C 67.335938 33.296875 61.050781 36.582031 53.65625 38.5625 C 46.257812 40.539062 39.796875 40.898438 34.265625 39.640625 C 28.742188 38.390625 23.953125 36 19.890625 32.46875 C 15.828125 28.9375 12.453125 24.460938 9.765625 19.046875 C 7.085938 13.628906 4.925781 7.84375 3.28125 1.6875 Z M 3.28125 1.6875 "/></g></g></g><g fill="#f4f8f4" fill-opacity="1"><g transform="translate(357.266645, 509.744281)"><g><path d="M 119.828125 -45.140625 C 118.828125 -48.835938 118.085938 -53.164062 117.609375 -58.125 C 117.140625 -63.09375 116.847656 -68.25 116.734375 -73.59375 C 116.617188 -78.945312 116.539062 -84.164062 116.5 -89.25 C 116.457031 -94.332031 116.378906 -98.84375 116.265625 -102.78125 C 116.097656 -107.644531 115.066406 -111.144531 113.171875 -113.28125 C 111.273438 -115.414062 108.832031 -116.082031 105.84375 -115.28125 C 104.4375 -114.894531 101.992188 -112.914062 98.515625 -109.34375 C 95.035156 -105.769531 91.691406 -100.296875 88.484375 -92.921875 C 85.273438 -85.546875 82.710938 -76.082031 80.796875 -64.53125 C 78.890625 -52.988281 78.738281 -38.9375 80.34375 -22.375 C 77.46875 -19.707031 74.609375 -17.710938 71.765625 -16.390625 C 70.265625 -15.617188 68.925781 -14.976562 67.75 -14.46875 C 64.269531 -13.34375 61.820312 -13.300781 60.40625 -14.34375 C 59 -15.382812 58.316406 -18.644531 58.359375 -24.125 C 58.410156 -26.78125 58.628906 -31.082031 59.015625 -37.03125 C 59.398438 -42.988281 59.609375 -49.414062 59.640625 -56.3125 C 59.679688 -63.21875 59.503906 -70.0625 59.109375 -76.84375 C 58.710938 -83.625 57.875 -89.394531 56.59375 -94.15625 C 55.695312 -97.488281 54.507812 -99.617188 53.03125 -100.546875 C 51.550781 -101.472656 49.757812 -101.65625 47.65625 -101.09375 C 46.070312 -100.664062 43.664062 -99.078125 40.4375 -96.328125 C 37.21875 -93.578125 34 -89.03125 30.78125 -82.6875 C 27.570312 -76.351562 24.9375 -68.050781 22.875 -57.78125 C 20.8125 -47.519531 20.128906 -34.75 20.828125 -19.46875 L 20.6875 -20 C 20.707031 -18.488281 20.734375 -16.984375 20.765625 -15.484375 C 20.742188 -14.148438 20.832031 -12.753906 21.03125 -11.296875 C 21.238281 -9.835938 21.328125 -8.445312 21.296875 -7.125 L 9.65625 2.234375 C 8.875 2.828125 7.84375 3.382812 6.5625 3.90625 C 5.289062 4.4375 4 4.546875 2.6875 4.234375 C 1.375 3.929688 0.195312 2.878906 -0.84375 1.078125 C -1.894531 -0.710938 -2.5 -3.664062 -2.65625 -7.78125 L -4.46875 -81.171875 C -4.5625 -83.609375 -4.710938 -85.929688 -4.921875 -88.140625 C -5.097656 -90.171875 -5.382812 -92.117188 -5.78125 -93.984375 C -6.1875 -95.859375 -6.734375 -97.367188 -7.421875 -98.515625 C -4.804688 -100.722656 -2.445312 -102.484375 -0.34375 -103.796875 C 1.75 -105.117188 3.457031 -106.144531 4.78125 -106.875 C 6.394531 -107.875 7.816406 -108.539062 9.046875 -108.875 C 14.679688 -110.375 17.828125 -106.03125 18.484375 -95.84375 C 18.535156 -92.820312 18.585938 -88.394531 18.640625 -82.5625 C 20.859375 -87.675781 23.347656 -92.632812 26.109375 -97.4375 C 28.878906 -102.25 31.800781 -106.664062 34.875 -110.6875 C 37.945312 -114.71875 41.226562 -118.144531 44.71875 -120.96875 C 48.21875 -123.789062 51.90625 -125.722656 55.78125 -126.765625 C 58.769531 -127.566406 61.507812 -127.359375 64 -126.140625 C 66.5 -124.921875 68.707031 -123.007812 70.625 -120.40625 C 72.550781 -117.8125 74.132812 -114.554688 75.375 -110.640625 C 76.613281 -106.734375 77.535156 -102.59375 78.140625 -98.21875 C 79.960938 -102.675781 82.082031 -107.253906 84.5 -111.953125 C 86.925781 -116.660156 89.632812 -121.019531 92.625 -125.03125 C 95.613281 -129.039062 98.867188 -132.554688 102.390625 -135.578125 C 105.921875 -138.609375 109.707031 -140.664062 113.75 -141.75 C 118.507812 -143.019531 122.539062 -142.585938 125.84375 -140.453125 C 129.15625 -138.316406 131.882812 -135.175781 134.03125 -131.03125 C 136.175781 -126.894531 137.710938 -122.210938 138.640625 -116.984375 C 139.566406 -111.753906 140.140625 -106.617188 140.359375 -101.578125 L 140.9375 -63.53125 C 141.363281 -54.21875 144.394531 -50.3125 150.03125 -51.8125 C 154.425781 -53 158.695312 -56.410156 162.84375 -62.046875 C 167 -67.679688 170.804688 -74.078125 174.265625 -81.234375 C 177.734375 -88.398438 180.84375 -95.648438 183.59375 -102.984375 C 186.34375 -110.328125 188.71875 -116.242188 190.71875 -120.734375 C 191.445312 -122.253906 192.359375 -123.253906 193.453125 -123.734375 C 194.554688 -124.222656 195.582031 -124.265625 196.53125 -123.859375 C 197.488281 -123.453125 198.203125 -122.554688 198.671875 -121.171875 C 199.140625 -119.785156 199.128906 -117.894531 198.640625 -115.5 C 196.765625 -108.40625 194.273438 -100.425781 191.171875 -91.5625 C 188.078125 -82.707031 184.363281 -74.207031 180.03125 -66.0625 C 175.695312 -57.914062 170.6875 -50.722656 165 -44.484375 C 159.320312 -38.242188 152.785156 -34.132812 145.390625 -32.15625 C 142.921875 -31.488281 140.425781 -31.101562 137.90625 -31 C 135.394531 -30.894531 132.9375 -31.273438 130.53125 -32.140625 C 128.125 -33.003906 125.984375 -34.460938 124.109375 -36.515625 C 122.242188 -38.566406 120.816406 -41.441406 119.828125 -45.140625 Z M 119.828125 -45.140625 "/></g></g></g><g fill="#f4f8f4" fill-opacity="1"><g transform="translate(540.575364, 460.628417)"><g><path d="M 119.828125 -45.140625 C 118.828125 -48.835938 118.085938 -53.164062 117.609375 -58.125 C 117.140625 -63.09375 116.847656 -68.25 116.734375 -73.59375 C 116.617188 -78.945312 116.539062 -84.164062 116.5 -89.25 C 116.457031 -94.332031 116.378906 -98.84375 116.265625 -102.78125 C 116.097656 -107.644531 115.066406 -111.144531 113.171875 -113.28125 C 111.273438 -115.414062 108.832031 -116.082031 105.84375 -115.28125 C 104.4375 -114.894531 101.992188 -112.914062 98.515625 -109.34375 C 95.035156 -105.769531 91.691406 -100.296875 88.484375 -92.921875 C 85.273438 -85.546875 82.710938 -76.082031 80.796875 -64.53125 C 78.890625 -52.988281 78.738281 -38.9375 80.34375 -22.375 C 77.46875 -19.707031 74.609375 -17.710938 71.765625 -16.390625 C 70.265625 -15.617188 68.925781 -14.976562 67.75 -14.46875 C 64.269531 -13.34375 61.820312 -13.300781 60.40625 -14.34375 C 59 -15.382812 58.316406 -18.644531 58.359375 -24.125 C 58.410156 -26.78125 58.628906 -31.082031 59.015625 -37.03125 C 59.398438 -42.988281 59.609375 -49.414062 59.640625 -56.3125 C 59.679688 -63.21875 59.503906 -70.0625 59.109375 -76.84375 C 58.710938 -83.625 57.875 -89.394531 56.59375 -94.15625 C 55.695312 -97.488281 54.507812 -99.617188 53.03125 -100.546875 C 51.550781 -101.472656 49.757812 -101.65625 47.65625 -101.09375 C 46.070312 -100.664062 43.664062 -99.078125 40.4375 -96.328125 C 37.21875 -93.578125 34 -89.03125 30.78125 -82.6875 C 27.570312 -76.351562 24.9375 -68.050781 22.875 -57.78125 C 20.8125 -47.519531 20.128906 -34.75 20.828125 -19.46875 L 20.6875 -20 C 20.707031 -18.488281 20.734375 -16.984375 20.765625 -15.484375 C 20.742188 -14.148438 20.832031 -12.753906 21.03125 -11.296875 C 21.238281 -9.835938 21.328125 -8.445312 21.296875 -7.125 L 9.65625 2.234375 C 8.875 2.828125 7.84375 3.382812 6.5625 3.90625 C 5.289062 4.4375 4 4.546875 2.6875 4.234375 C 1.375 3.929688 0.195312 2.878906 -0.84375 1.078125 C -1.894531 -0.710938 -2.5 -3.664062 -2.65625 -7.78125 L -4.46875 -81.171875 C -4.5625 -83.609375 -4.710938 -85.929688 -4.921875 -88.140625 C -5.097656 -90.171875 -5.382812 -92.117188 -5.78125 -93.984375 C -6.1875 -95.859375 -6.734375 -97.367188 -7.421875 -98.515625 C -4.804688 -100.722656 -2.445312 -102.484375 -0.34375 -103.796875 C 1.75 -105.117188 3.457031 -106.144531 4.78125 -106.875 C 6.394531 -107.875 7.816406 -108.539062 9.046875 -108.875 C 14.679688 -110.375 17.828125 -106.03125 18.484375 -95.84375 C 18.535156 -92.820312 18.585938 -88.394531 18.640625 -82.5625 C 20.859375 -87.675781 23.347656 -92.632812 26.109375 -97.4375 C 28.878906 -102.25 31.800781 -106.664062 34.875 -110.6875 C 37.945312 -114.71875 41.226562 -118.144531 44.71875 -120.96875 C 48.21875 -123.789062 51.90625 -125.722656 55.78125 -126.765625 C 58.769531 -127.566406 61.507812 -127.359375 64 -126.140625 C 66.5 -124.921875 68.707031 -123.007812 70.625 -120.40625 C 72.550781 -117.8125 74.132812 -114.554688 75.375 -110.640625 C 76.613281 -106.734375 77.535156 -102.59375 78.140625 -98.21875 C 79.960938 -102.675781 82.082031 -107.253906 84.5 -111.953125 C 86.925781 -116.660156 89.632812 -121.019531 92.625 -125.03125 C 95.613281 -129.039062 98.867188 -132.554688 102.390625 -135.578125 C 105.921875 -138.609375 109.707031 -140.664062 113.75 -141.75 C 118.507812 -143.019531 122.539062 -142.585938 125.84375 -140.453125 C 129.15625 -138.316406 131.882812 -135.175781 134.03125 -131.03125 C 136.175781 -126.894531 137.710938 -122.210938 138.640625 -116.984375 C 139.566406 -111.753906 140.140625 -106.617188 140.359375 -101.578125 L 140.9375 -63.53125 C 141.363281 -54.21875 144.394531 -50.3125 150.03125 -51.8125 C 154.425781 -53 158.695312 -56.410156 162.84375 -62.046875 C 167 -67.679688 170.804688 -74.078125 174.265625 -81.234375 C 177.734375 -88.398438 180.84375 -95.648438 183.59375 -102.984375 C 186.34375 -110.328125 188.71875 -116.242188 190.71875 -120.734375 C 191.445312 -122.253906 192.359375 -123.253906 193.453125 -123.734375 C 194.554688 -124.222656 195.582031 -124.265625 196.53125 -123.859375 C 197.488281 -123.453125 198.203125 -122.554688 198.671875 -121.171875 C 199.140625 -119.785156 199.128906 -117.894531 198.640625 -115.5 C 196.765625 -108.40625 194.273438 -100.425781 191.171875 -91.5625 C 188.078125 -82.707031 184.363281 -74.207031 180.03125 -66.0625 C 175.695312 -57.914062 170.6875 -50.722656 165 -44.484375 C 159.320312 -38.242188 152.785156 -34.132812 145.390625 -32.15625 C 142.921875 -31.488281 140.425781 -31.101562 137.90625 -31 C 135.394531 -30.894531 132.9375 -31.273438 130.53125 -32.140625 C 128.125 -33.003906 125.984375 -34.460938 124.109375 -36.515625 C 122.242188 -38.566406 120.816406 -41.441406 119.828125 -45.140625 Z M 119.828125 -45.140625 "/></g></g></g><g fill="#f4f8f4" fill-opacity="1"><g transform="translate(723.884083, 411.512552)"><g><path d="M 104.9375 -87 C 101.726562 -77.832031 97.753906 -68.703125 93.015625 -59.609375 C 88.285156 -50.515625 82.945312 -42.097656 77 -34.359375 C 71.050781 -26.628906 64.628906 -19.953125 57.734375 -14.328125 C 50.847656 -8.710938 43.707031 -4.910156 36.3125 -2.921875 C 32.4375 -1.890625 28.003906 -1.695312 23.015625 -2.34375 C 18.023438 -2.988281 13.160156 -4.753906 8.421875 -7.640625 C 3.679688 -10.523438 -0.613281 -14.753906 -4.46875 -20.328125 C -8.320312 -25.898438 -10.984375 -33.207031 -12.453125 -42.25 C -13.679688 -49.65625 -13.472656 -57.867188 -11.828125 -66.890625 C -10.191406 -75.921875 -7.492188 -84.523438 -3.734375 -92.703125 C 0.015625 -100.878906 4.773438 -108.097656 10.546875 -114.359375 C 16.328125 -120.628906 22.738281 -124.707031 29.78125 -126.59375 C 36.46875 -128.382812 41.753906 -128.007812 45.640625 -125.46875 C 49.535156 -122.925781 51.96875 -119.140625 52.9375 -114.109375 C 53.875 -108.503906 53.675781 -103.070312 52.34375 -97.8125 C 51.019531 -92.550781 49.09375 -87.597656 46.5625 -82.953125 C 44.03125 -78.316406 41.179688 -73.96875 38.015625 -69.90625 C 34.859375 -65.851562 31.851562 -62.128906 29 -58.734375 C 25.832031 -55.054688 22.804688 -51.554688 19.921875 -48.234375 C 17.035156 -44.910156 14.535156 -41.925781 12.421875 -39.28125 C 13.765625 -34.914062 15.539062 -31.425781 17.75 -28.8125 C 19.96875 -26.195312 22.378906 -24.25 24.984375 -22.96875 C 27.585938 -21.695312 30.363281 -21.023438 33.3125 -20.953125 C 36.257812 -20.890625 39.140625 -21.238281 41.953125 -22 C 47.941406 -23.601562 53.6875 -27.171875 59.1875 -32.703125 C 64.6875 -38.242188 69.835938 -44.53125 74.640625 -51.5625 C 79.453125 -58.601562 83.765625 -65.75 87.578125 -73 C 91.398438 -80.257812 94.503906 -86.472656 96.890625 -91.640625 C 97.742188 -93.378906 98.796875 -94.554688 100.046875 -95.171875 C 101.296875 -95.796875 102.398438 -95.898438 103.359375 -95.484375 C 104.316406 -95.078125 104.992188 -94.125 105.390625 -92.625 C 105.796875 -91.132812 105.644531 -89.257812 104.9375 -87 Z M 26.421875 -109.546875 C 24.304688 -108.984375 22.078125 -107.253906 19.734375 -104.359375 C 17.390625 -101.460938 15.335938 -97.65625 13.578125 -92.9375 C 11.828125 -88.226562 10.484375 -82.679688 9.546875 -76.296875 C 8.617188 -69.921875 8.535156 -62.867188 9.296875 -55.140625 C 10.984375 -57.296875 12.832031 -59.535156 14.84375 -61.859375 C 16.863281 -64.191406 18.847656 -66.664062 20.796875 -69.28125 C 26.796875 -77.101562 30.703125 -83.613281 32.515625 -88.8125 C 34.335938 -94.019531 35.003906 -98.257812 34.515625 -101.53125 C 33.960938 -104.96875 32.957031 -107.289062 31.5 -108.5 C 30.039062 -109.71875 28.347656 -110.066406 26.421875 -109.546875 Z M 26.421875 -109.546875 "/></g></g></g><g fill="#f4f8f4" fill-opacity="1"><g transform="translate(813.694851, 387.448593)"><g><path d="M 70.46875 -72.953125 C 71.050781 -67.265625 71.609375 -61.847656 72.140625 -56.703125 C 72.671875 -51.554688 73.25 -47.460938 73.875 -44.421875 C 74.875 -39.972656 76.515625 -37.015625 78.796875 -35.546875 C 81.078125 -34.078125 83.273438 -33.628906 85.390625 -34.203125 C 87.847656 -34.859375 90.550781 -36.898438 93.5 -40.328125 C 96.457031 -43.765625 99.46875 -47.875 102.53125 -52.65625 C 105.59375 -57.4375 108.554688 -62.570312 111.421875 -68.0625 C 114.285156 -73.5625 116.898438 -78.75 119.265625 -83.625 C 121.640625 -88.507812 123.613281 -92.765625 125.1875 -96.390625 C 126.769531 -100.023438 127.882812 -102.398438 128.53125 -103.515625 C 129.300781 -104.847656 130.238281 -105.753906 131.34375 -106.234375 C 132.445312 -106.722656 133.421875 -106.796875 134.265625 -106.453125 C 135.109375 -106.109375 135.71875 -105.234375 136.09375 -103.828125 C 136.46875 -102.421875 136.238281 -100.472656 135.40625 -97.984375 C 134.1875 -94.078125 132.503906 -89.429688 130.359375 -84.046875 C 128.210938 -78.660156 125.75 -73.046875 122.96875 -67.203125 C 120.195312 -61.359375 117.175781 -55.546875 113.90625 -49.765625 C 110.644531 -43.984375 107.242188 -38.726562 103.703125 -34 C 100.160156 -29.28125 96.613281 -25.265625 93.0625 -21.953125 C 89.507812 -18.640625 86.0625 -16.539062 82.71875 -15.65625 C 80.25 -14.988281 77.722656 -15.0625 75.140625 -15.875 C 72.566406 -16.695312 70.09375 -18.019531 67.71875 -19.84375 C 65.34375 -21.664062 63.296875 -23.859375 61.578125 -26.421875 C 59.859375 -28.984375 58.703125 -31.691406 58.109375 -34.546875 C 57.960938 -35.828125 57.664062 -38.015625 57.21875 -41.109375 C 52.039062 -30.835938 46.359375 -22.273438 40.171875 -15.421875 C 33.984375 -8.578125 27.457031 -4.238281 20.59375 -2.40625 C 18.132812 -1.738281 15.328125 -1.644531 12.171875 -2.125 C 9.023438 -2.601562 5.972656 -3.957031 3.015625 -6.1875 C 0.0546875 -8.414062 -2.738281 -11.628906 -5.375 -15.828125 C -8.007812 -20.035156 -10.023438 -25.441406 -11.421875 -32.046875 C -13.628906 -42.390625 -14.195312 -52.613281 -13.125 -62.71875 C -12.050781 -72.820312 -9.738281 -81.984375 -6.1875 -90.203125 C -2.632812 -98.429688 2 -105.429688 7.71875 -111.203125 C 13.4375 -116.984375 19.726562 -120.789062 26.59375 -122.625 C 29.59375 -123.425781 32.523438 -123.410156 35.390625 -122.578125 C 38.253906 -121.742188 40.882812 -120.375 43.28125 -118.46875 C 45.675781 -116.5625 47.820312 -114.347656 49.71875 -111.828125 C 51.613281 -109.316406 53.160156 -106.898438 54.359375 -104.578125 C 54.210938 -110.023438 54.007812 -115.351562 53.75 -120.5625 C 53.488281 -125.78125 53.300781 -130.726562 53.1875 -135.40625 C 53.195312 -142.394531 53.15625 -149.929688 53.0625 -158.015625 C 53.082031 -165.015625 53.101562 -173.046875 53.125 -182.109375 C 53.15625 -191.171875 53.328125 -200.742188 53.640625 -210.828125 C 55.023438 -212.703125 56.410156 -214.207031 57.796875 -215.34375 C 59.191406 -216.476562 60.550781 -217.40625 61.875 -218.125 C 63.3125 -219.09375 64.734375 -219.765625 66.140625 -220.140625 C 67.898438 -220.609375 69.539062 -220.8125 71.0625 -220.75 C 72.59375 -220.6875 74.085938 -219.859375 75.546875 -218.265625 C 77.015625 -216.679688 78.421875 -214.085938 79.765625 -210.484375 C 81.117188 -206.878906 82.46875 -201.863281 83.8125 -195.4375 C 85.53125 -187.59375 86.425781 -178.769531 86.5 -168.96875 C 86.570312 -159.175781 85.984375 -148.875 84.734375 -138.0625 C 83.484375 -127.25 81.65625 -116.285156 79.25 -105.171875 C 76.851562 -94.054688 73.925781 -83.316406 70.46875 -72.953125 Z M 55.828125 -65.34375 C 55.628906 -68.882812 55.390625 -72.410156 55.109375 -75.921875 C 54.828125 -79.429688 54.65625 -83.066406 54.59375 -86.828125 C 54.289062 -86.554688 54.03125 -86.296875 53.8125 -86.046875 C 53.59375 -85.796875 53.328125 -85.535156 53.015625 -85.265625 C 51.328125 -83.859375 50 -83.546875 49.03125 -84.328125 C 48.070312 -85.117188 47.3125 -86.570312 46.75 -88.6875 C 46.457031 -89.738281 45.859375 -91.601562 44.953125 -94.28125 C 44.046875 -96.96875 42.804688 -99.65625 41.234375 -102.34375 C 39.660156 -105.039062 37.785156 -107.273438 35.609375 -109.046875 C 33.429688 -110.816406 30.929688 -111.328125 28.109375 -110.578125 C 24.066406 -109.492188 20.488281 -106.316406 17.375 -101.046875 C 14.257812 -95.773438 11.644531 -89.691406 9.53125 -82.796875 C 7.414062 -75.910156 6.019531 -68.789062 5.34375 -61.4375 C 4.664062 -54.082031 4.863281 -47.71875 5.9375 -42.34375 C 7.84375 -33.800781 10.519531 -28.007812 13.96875 -24.96875 C 17.425781 -21.9375 21.269531 -20.988281 25.5 -22.125 C 28.664062 -22.96875 31.8125 -25.128906 34.9375 -28.609375 C 38.0625 -32.085938 40.957031 -36.070312 43.625 -40.5625 C 46.289062 -45.050781 48.664062 -49.554688 50.75 -54.078125 C 52.84375 -58.597656 54.535156 -62.351562 55.828125 -65.34375 Z M 55.828125 -65.34375 "/></g></g></g><g fill="#f4f8f4" fill-opacity="1"><g transform="translate(391.533448, 916.721445)"><g><path d="M 2.484375 -3.28125 C 3.378906 -3.320312 4.0625 -3.429688 4.53125 -3.609375 C 5 -3.796875 5.363281 -4.1875 5.625 -4.78125 C 5.894531 -5.375 6.03125 -6.320312 6.03125 -7.625 L 6.03125 -26.6875 C 6.03125 -28.550781 6.09375 -30.046875 6.21875 -31.171875 L 2.484375 -31.015625 L 2.484375 -34.859375 L 27.390625 -34.859375 L 27.6875 -25.203125 L 24.40625 -25.203125 C 24.40625 -27.648438 23.8125 -29.347656 22.625 -30.296875 C 21.445312 -31.242188 20.03125 -31.6875 18.375 -31.625 L 16.578125 -31.578125 C 15.785156 -31.535156 15.15625 -31.421875 14.6875 -31.234375 C 14.226562 -31.054688 13.875 -30.648438 13.625 -30.015625 C 13.375 -29.390625 13.25 -28.460938 13.25 -27.234375 L 13.25 -19.765625 L 19.078125 -19.765625 C 19.035156 -20.328125 18.96875 -21.773438 18.875 -24.109375 L 22.703125 -24.109375 L 22.703125 -12 L 19.421875 -12 C 19.421875 -13.332031 19.210938 -14.3125 18.796875 -14.9375 C 18.378906 -15.570312 17.835938 -15.976562 17.171875 -16.15625 C 16.515625 -16.34375 15.640625 -16.421875 14.546875 -16.390625 L 13.25 -16.328125 L 13.25 -8.171875 C 13.25 -6.378906 13.179688 -4.914062 13.046875 -3.78125 L 19.71875 -3.78125 C 21.414062 -3.78125 22.851562 -4.351562 24.03125 -5.5 C 25.207031 -6.644531 25.796875 -8.460938 25.796875 -10.953125 L 29.03125 -10.953125 L 28.78125 0 L 2.484375 0 Z M 2.484375 -3.28125 "/></g></g></g><g fill="#f4f8f4" fill-opacity="1"><g transform="translate(431.561293, 916.721445)"><g><path d="M 15.28125 0.796875 C 13.925781 0.796875 12.472656 0.578125 10.921875 0.140625 C 9.378906 -0.285156 7.960938 -0.878906 6.671875 -1.640625 L 6.625 -1.640625 L 6.765625 0.453125 L 2.9375 0.453125 L 2.9375 -11.203125 L 6.21875 -11.203125 C 6.65625 -8.484375 7.703125 -6.398438 9.359375 -4.953125 C 11.023438 -3.503906 13.050781 -2.78125 15.4375 -2.78125 C 17.164062 -2.78125 18.59375 -3.238281 19.71875 -4.15625 C 20.84375 -5.070312 21.40625 -6.175781 21.40625 -7.46875 C 21.40625 -8.53125 21.03125 -9.441406 20.28125 -10.203125 C 19.539062 -10.972656 18.710938 -11.570312 17.796875 -12 C 16.890625 -12.425781 15.4375 -13.039062 13.4375 -13.84375 C 9.789062 -15.300781 6.992188 -16.957031 5.046875 -18.8125 C 3.109375 -20.675781 2.140625 -23.117188 2.140625 -26.140625 C 2.140625 -27.671875 2.519531 -29.15625 3.28125 -30.59375 C 4.050781 -32.039062 5.304688 -33.242188 7.046875 -34.203125 C 8.785156 -35.171875 11.035156 -35.65625 13.796875 -35.65625 C 15.222656 -35.65625 16.710938 -35.445312 18.265625 -35.03125 C 19.828125 -34.613281 21.125 -34.023438 22.15625 -33.265625 L 22.203125 -33.265625 L 22.015625 -35.3125 L 25.890625 -35.3125 L 25.890625 -23.703125 L 22.609375 -23.703125 C 22.171875 -26.421875 21.210938 -28.492188 19.734375 -29.921875 C 18.265625 -31.347656 16.382812 -32.0625 14.09375 -32.0625 C 12.601562 -32.0625 11.316406 -31.65625 10.234375 -30.84375 C 9.148438 -30.03125 8.609375 -29.007812 8.609375 -27.78125 C 8.609375 -26.320312 9.222656 -25.09375 10.453125 -24.09375 C 11.679688 -23.101562 13.757812 -22.007812 16.6875 -20.8125 C 20.039062 -19.488281 22.769531 -17.953125 24.875 -16.203125 C 26.976562 -14.460938 28.03125 -12.148438 28.03125 -9.265625 C 28.03125 -7.304688 27.5 -5.5625 26.4375 -4.03125 C 25.375 -2.507812 23.878906 -1.320312 21.953125 -0.46875 C 20.035156 0.375 17.8125 0.796875 15.28125 0.796875 Z M 15.28125 0.796875 "/></g></g></g><g fill="#f4f8f4" fill-opacity="1"><g transform="translate(470.294846, 916.721445)"><g><path d="M 8.96875 -3.28125 C 9.863281 -3.320312 10.539062 -3.429688 11 -3.609375 C 11.46875 -3.796875 11.832031 -4.1875 12.09375 -4.78125 C 12.363281 -5.375 12.5 -6.320312 12.5 -7.625 L 12.5 -31.46875 L 10.203125 -31.46875 C 8.242188 -31.4375 6.734375 -30.769531 5.671875 -29.46875 C 4.609375 -28.175781 4.078125 -26.222656 4.078125 -23.609375 L 0.796875 -23.609375 L 1.046875 -34.859375 L 31.21875 -34.859375 L 31.515625 -23.609375 L 28.234375 -23.609375 C 28.234375 -26.222656 27.691406 -28.203125 26.609375 -29.546875 C 25.535156 -30.898438 24.035156 -31.554688 22.109375 -31.515625 L 19.71875 -31.515625 L 19.71875 -8.171875 C 19.71875 -5.941406 19.648438 -4.445312 19.515625 -3.6875 C 20.609375 -3.78125 21.9375 -3.828125 23.5 -3.828125 L 23.5 0 L 8.96875 0 Z M 8.96875 -3.28125 "/></g></g></g><g fill="#f4f8f4" fill-opacity="1"><g transform="translate(511.617024, 916.721445)"><g><path d="M 2.484375 -3.28125 C 3.378906 -3.320312 4.0625 -3.429688 4.53125 -3.609375 C 5 -3.796875 5.363281 -4.1875 5.625 -4.78125 C 5.894531 -5.375 6.03125 -6.320312 6.03125 -7.625 L 6.03125 -26.6875 C 6.03125 -28.550781 6.09375 -30.046875 6.21875 -31.171875 L 2.484375 -31.015625 L 2.484375 -34.859375 L 16.984375 -34.90625 C 21.128906 -34.90625 24.632812 -34.082031 27.5 -32.4375 C 30.375 -30.800781 32.515625 -28.671875 33.921875 -26.046875 C 35.335938 -23.421875 36.046875 -20.664062 36.046875 -17.78125 C 36.046875 -14.851562 35.375 -12.035156 34.03125 -9.328125 C 32.6875 -6.628906 30.5625 -4.398438 27.65625 -2.640625 C 24.757812 -0.878906 21.117188 0 16.734375 0 L 2.484375 0 Z M 17.78125 -3.640625 C 20.101562 -3.640625 22.039062 -4.25 23.59375 -5.46875 C 25.15625 -6.695312 26.3125 -8.300781 27.0625 -10.28125 C 27.8125 -12.257812 28.1875 -14.410156 28.1875 -16.734375 C 28.1875 -21.773438 27.15625 -25.507812 25.09375 -27.9375 C 23.039062 -30.363281 20.140625 -31.578125 16.390625 -31.578125 C 15.253906 -31.578125 14.445312 -31.289062 13.96875 -30.71875 C 13.488281 -30.15625 13.25 -29.03125 13.25 -27.34375 L 13.25 -8.171875 C 13.25 -6.304688 13.179688 -4.8125 13.046875 -3.6875 C 13.210938 -3.71875 13.53125 -3.734375 14 -3.734375 L 16.140625 -3.6875 C 16.566406 -3.65625 17.113281 -3.640625 17.78125 -3.640625 Z M 17.78125 -3.640625 "/></g></g></g><g fill="#f4f8f4" fill-opacity="1"><g transform="translate(557.020956, 916.721445)"><g><path d="M 5.875 0.796875 C 4.8125 0.796875 3.929688 0.425781 3.234375 -0.3125 C 2.535156 -1.0625 2.1875 -1.988281 2.1875 -3.09375 C 2.1875 -4.15625 2.550781 -5.066406 3.28125 -5.828125 C 4.007812 -6.585938 4.859375 -6.96875 5.828125 -6.96875 C 6.859375 -6.96875 7.710938 -6.585938 8.390625 -5.828125 C 9.066406 -5.066406 9.40625 -4.15625 9.40625 -3.09375 C 9.40625 -1.988281 9.082031 -1.0625 8.4375 -0.3125 C 7.789062 0.425781 6.9375 0.796875 5.875 0.796875 Z M 5.875 0.796875 "/></g></g></g><g fill="#f4f8f4" fill-opacity="1"><g transform="translate(577.584322, 916.721445)"><g/></g></g><g fill="#f4f8f4" fill-opacity="1"><g transform="translate(599.641142, 916.721445)"><g><path d="M 1.9375 0 C 1.9375 -2.15625 2.289062 -4.0625 3 -5.71875 C 3.71875 -7.382812 4.59375 -8.804688 5.625 -9.984375 C 6.65625 -11.160156 8.015625 -12.53125 9.703125 -14.09375 C 12.066406 -16.28125 13.769531 -18.296875 14.8125 -20.140625 C 15.863281 -21.984375 16.390625 -23.816406 16.390625 -25.640625 C 16.390625 -27.472656 16.03125 -29.007812 15.3125 -30.25 C 14.59375 -31.5 13.390625 -32.125 11.703125 -32.125 C 10.835938 -32.125 10.03125 -31.921875 9.28125 -31.515625 C 8.539062 -31.117188 7.96875 -30.625 7.5625 -30.03125 C 7.894531 -29.695312 8.144531 -29.285156 8.3125 -28.796875 C 8.476562 -28.316406 8.5625 -27.863281 8.5625 -27.4375 C 8.5625 -26.707031 8.28125 -25.992188 7.71875 -25.296875 C 7.15625 -24.597656 6.34375 -24.25 5.28125 -24.25 C 4.28125 -24.25 3.476562 -24.597656 2.875 -25.296875 C 2.28125 -25.992188 1.984375 -26.859375 1.984375 -27.890625 C 1.984375 -28.953125 2.421875 -30.085938 3.296875 -31.296875 C 4.179688 -32.503906 5.445312 -33.53125 7.09375 -34.375 C 8.738281 -35.226562 10.65625 -35.65625 12.84375 -35.65625 C 14.769531 -35.65625 16.578125 -35.335938 18.265625 -34.703125 C 19.960938 -34.078125 21.34375 -33.054688 22.40625 -31.640625 C 23.46875 -30.234375 24 -28.4375 24 -26.25 C 24 -25.050781 23.695312 -23.828125 23.09375 -22.578125 C 22.5 -21.335938 21.40625 -19.867188 19.8125 -18.171875 C 18.21875 -16.484375 15.960938 -14.441406 13.046875 -12.046875 C 11.347656 -10.691406 10.035156 -9.390625 9.109375 -8.140625 C 8.179688 -6.898438 7.632812 -5.894531 7.46875 -5.125 L 17.234375 -4.875 C 18.460938 -4.8125 19.390625 -5.007812 20.015625 -5.46875 C 20.648438 -5.9375 20.96875 -6.816406 20.96875 -8.109375 L 24.15625 -8.109375 L 23.75 0 Z M 1.9375 0 "/></g></g></g><g fill="#f4f8f4" fill-opacity="1"><g transform="translate(635.138909, 916.721445)"><g><path d="M 15.828125 0.796875 C 12.648438 0.796875 10.039062 -0.0859375 8 -1.859375 C 5.957031 -3.640625 4.46875 -5.898438 3.53125 -8.640625 C 2.601562 -11.378906 2.140625 -14.257812 2.140625 -17.28125 C 2.140625 -20.195312 2.671875 -23.070312 3.734375 -25.90625 C 4.796875 -28.75 6.378906 -31.082031 8.484375 -32.90625 C 10.597656 -34.738281 13.113281 -35.65625 16.03125 -35.65625 C 19.050781 -35.65625 21.570312 -34.757812 23.59375 -32.96875 C 25.625 -31.175781 27.113281 -28.898438 28.0625 -26.140625 C 29.007812 -23.390625 29.484375 -20.519531 29.484375 -17.53125 C 29.484375 -14.601562 28.96875 -11.726562 27.9375 -8.90625 C 26.90625 -6.09375 25.359375 -3.769531 23.296875 -1.9375 C 21.242188 -0.113281 18.753906 0.796875 15.828125 0.796875 Z M 16.140625 -2.734375 C 18.296875 -2.734375 19.796875 -3.976562 20.640625 -6.46875 C 21.484375 -8.957031 21.90625 -12.296875 21.90625 -16.484375 C 21.90625 -21.296875 21.488281 -25.113281 20.65625 -27.9375 C 19.832031 -30.757812 18.257812 -32.171875 15.9375 -32.171875 C 13.707031 -32.171875 12.109375 -30.898438 11.140625 -28.359375 C 10.179688 -25.816406 9.703125 -22.472656 9.703125 -18.328125 C 9.703125 -13.804688 10.132812 -10.078125 11 -7.140625 C 11.863281 -4.203125 13.578125 -2.734375 16.140625 -2.734375 Z M 16.140625 -2.734375 "/></g></g></g><g fill="#f4f8f4" fill-opacity="1"><g transform="translate(675.764132, 916.721445)"><g><path d="M 3.984375 -3.28125 C 4.878906 -3.320312 5.554688 -3.429688 6.015625 -3.609375 C 6.484375 -3.796875 6.847656 -4.1875 7.109375 -4.78125 C 7.378906 -5.375 7.515625 -6.320312 7.515625 -7.625 L 7.515625 -27.59375 L 2.09375 -24.34375 L 0.296875 -27.34375 L 11.703125 -35.65625 L 14.6875 -35.65625 L 14.6875 -8.171875 C 14.6875 -6.046875 14.640625 -4.550781 14.546875 -3.6875 C 15.609375 -3.78125 16.851562 -3.828125 18.28125 -3.828125 L 18.28125 0 L 3.984375 0 Z M 3.984375 -3.28125 "/></g></g></g><g fill="#f4f8f4" fill-opacity="1"><g transform="translate(704.939679, 916.721445)"><g><path d="M 14.09375 0.796875 C 12.332031 0.796875 10.585938 0.515625 8.859375 -0.046875 C 7.140625 -0.609375 5.695312 -1.535156 4.53125 -2.828125 C 3.363281 -4.128906 2.78125 -5.8125 2.78125 -7.875 C 2.78125 -9.625 3.425781 -11.335938 4.71875 -13.015625 C 6.019531 -14.691406 7.566406 -16.046875 9.359375 -17.078125 L 9.359375 -17.125 C 7.304688 -18.425781 5.789062 -19.878906 4.8125 -21.484375 C 3.832031 -23.097656 3.34375 -24.648438 3.34375 -26.140625 C 3.34375 -28.203125 3.90625 -29.945312 5.03125 -31.375 C 6.15625 -32.800781 7.582031 -33.867188 9.3125 -34.578125 C 11.039062 -35.296875 12.816406 -35.65625 14.640625 -35.65625 C 16.398438 -35.65625 18.066406 -35.320312 19.640625 -34.65625 C 21.222656 -33.988281 22.492188 -33.015625 23.453125 -31.734375 C 24.410156 -30.460938 24.890625 -28.945312 24.890625 -27.1875 C 24.890625 -25.625 24.304688 -24.128906 23.140625 -22.703125 C 21.984375 -21.273438 20.59375 -20.066406 18.96875 -19.078125 L 18.96875 -19.015625 C 23.914062 -15.992188 26.390625 -12.507812 26.390625 -8.5625 C 26.390625 -5.507812 25.210938 -3.1875 22.859375 -1.59375 C 20.503906 0 17.582031 0.796875 14.09375 0.796875 Z M 15.734375 -21.0625 C 16.796875 -21.863281 17.679688 -22.828125 18.390625 -23.953125 C 19.109375 -25.078125 19.484375 -26.085938 19.515625 -26.984375 C 19.585938 -28.578125 19.191406 -29.835938 18.328125 -30.765625 C 17.460938 -31.703125 16.363281 -32.171875 15.03125 -32.171875 C 13.644531 -32.171875 12.507812 -31.722656 11.625 -30.828125 C 10.75 -29.929688 10.3125 -28.832031 10.3125 -27.53125 C 10.3125 -26.269531 10.832031 -25.035156 11.875 -23.828125 C 12.914062 -22.617188 14.203125 -21.695312 15.734375 -21.0625 Z M 14.234375 -2.6875 C 15.765625 -2.6875 16.984375 -3.140625 17.890625 -4.046875 C 18.804688 -4.960938 19.265625 -6.117188 19.265625 -7.515625 C 19.265625 -8.878906 18.757812 -10.234375 17.75 -11.578125 C 16.738281 -12.921875 15.085938 -14.15625 12.796875 -15.28125 C 11.503906 -14.289062 10.523438 -13.113281 9.859375 -11.75 C 9.191406 -10.382812 8.859375 -9.15625 8.859375 -8.0625 C 8.859375 -6.539062 9.363281 -5.265625 10.375 -4.234375 C 11.394531 -3.203125 12.679688 -2.6875 14.234375 -2.6875 Z M 14.234375 -2.6875 "/></g></g></g><g fill="#ffffff" fill-opacity="1"><g transform="translate(377.418849, 702.854261)"><g><path d="M -2.765625 -25.828125 C -5.015625 -27.003906 -6.738281 -28.304688 -7.9375 -29.734375 C -9.144531 -31.171875 -10.144531 -32.625 -10.9375 -34.09375 C -11.78125 -35.707031 -12.304688 -37.425781 -12.515625 -39.25 C -12.554688 -41.613281 -12.242188 -43.929688 -11.578125 -46.203125 C -11.003906 -48.242188 -10.054688 -50.445312 -8.734375 -52.8125 C -7.410156 -55.1875 -5.421875 -57.640625 -2.765625 -60.171875 C -2.265625 -65.796875 -2.039062 -71.628906 -2.09375 -77.671875 C -2.15625 -83.722656 -2.253906 -89.207031 -2.390625 -94.125 C -2.617188 -99.875 -3 -105.566406 -3.53125 -111.203125 C -3.6875 -125.691406 -4.960938 -137.132812 -7.359375 -145.53125 C -9.753906 -153.9375 -11.59375 -159.40625 -12.875 -161.9375 C -13.375 -162.976562 -13.867188 -164.019531 -14.359375 -165.0625 C -14.953125 -165.90625 -15.546875 -166.875 -16.140625 -167.96875 C -16.734375 -169.070312 -17.359375 -170.125 -18.015625 -171.125 C -16.578125 -172.59375 -15.285156 -173.84375 -14.140625 -174.875 C -13.003906 -175.90625 -12.015625 -176.71875 -11.171875 -177.3125 C -10.222656 -178.113281 -9.304688 -178.738281 -8.421875 -179.1875 C -5.054688 -181.070312 -1.785156 -182.539062 1.390625 -183.59375 C 4.566406 -184.65625 6.5 -184.609375 7.1875 -183.453125 C 7.59375 -182.710938 8.222656 -181.363281 9.078125 -179.40625 C 9.929688 -177.445312 10.8125 -174.984375 11.71875 -172.015625 C 12.625 -169.046875 13.40625 -165.648438 14.0625 -161.828125 C 14.71875 -158.015625 15.035156 -153.890625 15.015625 -149.453125 C 15.035156 -145.523438 15.082031 -140.066406 15.15625 -133.078125 C 15.125 -127.078125 15.097656 -119.078125 15.078125 -109.078125 C 15.066406 -99.078125 14.96875 -86.273438 14.78125 -70.671875 C 19 -73.671875 23.703125 -76.734375 28.890625 -79.859375 C 34.078125 -82.984375 39.457031 -85.90625 45.03125 -88.625 C 50.613281 -91.351562 56.257812 -93.851562 61.96875 -96.125 C 67.6875 -98.394531 73.097656 -100.140625 78.203125 -101.359375 C 79.140625 -101.640625 79.929688 -101.410156 80.578125 -100.671875 C 81.234375 -99.929688 81.507812 -99.03125 81.40625 -97.96875 C 81.300781 -96.90625 80.71875 -95.742188 79.65625 -94.484375 C 78.59375 -93.222656 76.832031 -92.132812 74.375 -91.21875 C 71.34375 -89.945312 68.015625 -88.535156 64.390625 -86.984375 C 60.765625 -85.441406 57.066406 -83.710938 53.296875 -81.796875 C 49.523438 -79.878906 45.84375 -77.816406 42.25 -75.609375 C 38.65625 -73.398438 35.347656 -71.066406 32.328125 -68.609375 C 29.960938 -66.859375 27.597656 -65.109375 25.234375 -63.359375 C 23.273438 -61.890625 21.238281 -60.273438 19.125 -58.515625 C 17.019531 -56.765625 15.300781 -55.265625 13.96875 -54.015625 L 13.828125 -35.25 C 24.847656 -31.613281 33.847656 -27.1875 40.828125 -21.96875 C 47.816406 -16.757812 53.257812 -11.675781 57.15625 -6.71875 C 61.832031 -0.96875 65.273438 4.984375 67.484375 11.140625 C 69.585938 18.023438 70.6875 25.253906 70.78125 32.828125 C 70.882812 40.398438 70.226562 47.863281 68.8125 55.21875 C 67.394531 62.570312 65.289062 69.664062 62.5 76.5 C 59.71875 83.332031 56.460938 89.457031 52.734375 94.875 C 49.003906 100.289062 44.910156 104.789062 40.453125 108.375 C 36.003906 111.957031 31.441406 114.210938 26.765625 115.140625 C 23.390625 115.816406 20.328125 115.59375 17.578125 114.46875 C 14.835938 113.34375 12.503906 111.578125 10.578125 109.171875 C 8.648438 106.773438 7.09375 103.921875 5.90625 100.609375 C 4.71875 97.296875 4.019531 93.878906 3.8125 90.359375 C 3.425781 86.878906 2.890625 80.375 2.203125 70.84375 C 1.617188 62.8125 0.9375 51.097656 0.15625 35.703125 C -0.625 20.304688 -1.597656 -0.203125 -2.765625 -25.828125 Z M 14.421875 -19.015625 C 14.628906 -10.535156 14.914062 -2.765625 15.28125 4.296875 C 15.644531 11.359375 16.050781 17.554688 16.5 22.890625 C 16.851562 29.117188 17.359375 34.6875 18.015625 39.59375 C 18.421875 45.976562 18.765625 52.285156 19.046875 58.515625 C 19.335938 64.753906 19.757812 70.304688 20.3125 75.171875 C 20.863281 80.046875 21.644531 83.863281 22.65625 86.625 C 23.675781 89.394531 25.125 90.492188 27 89.921875 C 31.625 88.847656 35.8125 85.644531 39.5625 80.3125 C 43.3125 74.976562 46.320312 68.757812 48.59375 61.65625 C 50.863281 54.550781 52.285156 47.191406 52.859375 39.578125 C 53.441406 31.972656 52.847656 25.273438 51.078125 19.484375 C 49.117188 13.078125 46.164062 7.066406 42.21875 1.453125 C 39.8125 -1.410156 37.191406 -4.117188 34.359375 -6.671875 C 31.828125 -8.796875 28.882812 -11.007812 25.53125 -13.3125 C 22.175781 -15.625 18.472656 -17.523438 14.421875 -19.015625 Z M 14.421875 -19.015625 "/></g></g><g transform="translate(455.478809, 678.970253)"><g><path d="M 106 -83.4375 C 104.75 -79.644531 103.113281 -74.921875 101.09375 -69.265625 C 99.070312 -63.609375 96.925781 -57.910156 94.65625 -52.171875 C 92.394531 -46.429688 90.09375 -41.109375 87.75 -36.203125 C 85.40625 -31.296875 83.300781 -27.703125 81.4375 -25.421875 C 80.15625 -24.015625 78.59375 -22.6875 76.75 -21.4375 C 74.914062 -20.1875 72.960938 -19.160156 70.890625 -18.359375 C 68.828125 -17.554688 66.800781 -17.0625 64.8125 -16.875 C 62.820312 -16.695312 60.984375 -16.863281 59.296875 -17.375 C 57.554688 -18.039062 55.898438 -19.242188 54.328125 -20.984375 C 53.035156 -22.460938 51.601562 -24.5 50.03125 -27.09375 C 48.46875 -29.695312 47.113281 -33.132812 45.96875 -37.40625 C 44.144531 -30 41.476562 -23.921875 37.96875 -19.171875 C 34.457031 -14.429688 30.910156 -10.65625 27.328125 -7.84375 C 23.171875 -4.695312 18.800781 -2.25 14.21875 -0.5 C 12.019531 0.164062 9.441406 0.140625 6.484375 -0.578125 C 3.535156 -1.296875 0.710938 -2.992188 -1.984375 -5.671875 C -4.691406 -8.347656 -7.054688 -12.148438 -9.078125 -17.078125 C -11.097656 -22.015625 -12.328125 -28.269531 -12.765625 -35.84375 C -13.492188 -46.039062 -12.671875 -55.773438 -10.296875 -65.046875 C -7.921875 -74.316406 -4.765625 -82.585938 -0.828125 -89.859375 C 3.109375 -97.128906 7.378906 -103.007812 11.984375 -107.5 C 16.585938 -111.988281 20.738281 -114.625 24.4375 -115.40625 C 28.875 -115.90625 32.691406 -115.707031 35.890625 -114.8125 C 38.554688 -113.914062 40.707031 -112.050781 42.34375 -109.21875 C 43.976562 -106.382812 43.914062 -101.96875 42.15625 -95.96875 C 44.207031 -97.09375 45.953125 -97.960938 47.390625 -98.578125 C 48.828125 -99.191406 49.9375 -99.617188 50.71875 -99.859375 C 51.65625 -100.148438 52.300781 -100.265625 52.65625 -100.203125 C 52.90625 -99.941406 53.1875 -99.300781 53.5 -98.28125 C 53.8125 -97.269531 54.140625 -95.359375 54.484375 -92.546875 C 54.828125 -89.742188 55.222656 -85.929688 55.671875 -81.109375 C 56.128906 -76.296875 56.671875 -70.0625 57.296875 -62.40625 C 57.421875 -60.894531 57.546875 -59.515625 57.671875 -58.265625 C 57.796875 -57.023438 57.921875 -55.785156 58.046875 -54.546875 C 58.171875 -53.304688 58.316406 -51.851562 58.484375 -50.1875 C 58.648438 -48.53125 58.851562 -46.460938 59.09375 -43.984375 C 59.363281 -42.515625 59.789062 -40.972656 60.375 -39.359375 C 60.957031 -37.742188 61.695312 -36.304688 62.59375 -35.046875 C 63.5 -33.796875 64.585938 -32.890625 65.859375 -32.328125 C 67.140625 -31.773438 68.710938 -31.785156 70.578125 -32.359375 C 72.148438 -32.835938 73.890625 -34.4375 75.796875 -37.15625 C 77.703125 -39.875 79.59375 -43.1875 81.46875 -47.09375 C 83.34375 -51 85.242188 -55.253906 87.171875 -59.859375 C 89.097656 -64.460938 90.863281 -68.894531 92.46875 -73.15625 C 94.082031 -77.414062 95.535156 -81.191406 96.828125 -84.484375 C 98.117188 -87.773438 99.039062 -90.195312 99.59375 -91.75 C 100.425781 -93.539062 101.429688 -94.742188 102.609375 -95.359375 C 103.785156 -95.972656 104.828125 -95.90625 105.734375 -95.15625 C 106.640625 -94.414062 107.1875 -93.046875 107.375 -91.046875 C 107.5625 -89.046875 107.101562 -86.507812 106 -83.4375 Z M 40.453125 -52.125 C 40.285156 -55.488281 40.101562 -59.445312 39.90625 -64 C 39.707031 -68.550781 39.398438 -72.894531 38.984375 -77.03125 C 38.566406 -81.175781 38.160156 -84.597656 37.765625 -87.296875 C 37.367188 -90.003906 36.878906 -91.175781 36.296875 -90.8125 C 35.566406 -90.4375 34.78125 -89.945312 33.9375 -89.34375 C 33.238281 -88.789062 32.285156 -88.242188 31.078125 -87.703125 C 29.878906 -87.171875 28.710938 -86.554688 27.578125 -85.859375 C 28.046875 -88.742188 28.144531 -91.039062 27.875 -92.75 C 27.613281 -94.457031 27.265625 -95.757812 26.828125 -96.65625 C 26.335938 -97.695312 25.765625 -98.460938 25.109375 -98.953125 C 22.941406 -99.828125 20.269531 -97.769531 17.09375 -92.78125 C 13.925781 -87.789062 11.039062 -79.515625 8.4375 -67.953125 C 7.332031 -63.171875 6.78125 -58.257812 6.78125 -53.21875 C 6.789062 -48.175781 7.140625 -43.539062 7.828125 -39.3125 C 8.523438 -35.082031 9.5 -31.488281 10.75 -28.53125 C 12 -25.582031 13.234375 -23.785156 14.453125 -23.140625 C 16.691406 -21.941406 18.894531 -21.71875 21.0625 -22.46875 C 23.238281 -23.21875 25.28125 -24.523438 27.1875 -26.390625 C 29.09375 -28.253906 30.890625 -30.46875 32.578125 -33.03125 C 34.273438 -35.601562 35.710938 -38.179688 36.890625 -40.765625 C 38.066406 -43.347656 38.976562 -45.675781 39.625 -47.75 C 40.269531 -49.820312 40.546875 -51.28125 40.453125 -52.125 Z M 40.453125 -52.125 "/></g></g><g transform="translate(560.027586, 646.981462)"><g><path d="M -9.265625 1.546875 C -9.828125 3.609375 -10.6875 5.113281 -11.84375 6.0625 C -13.007812 7.019531 -14.160156 7.457031 -15.296875 7.375 C -16.429688 7.289062 -17.347656 6.671875 -18.046875 5.515625 C -18.742188 4.359375 -18.910156 2.703125 -18.546875 0.546875 C -18.359375 -0.535156 -17.945312 -2.96875 -17.3125 -6.75 C -16.675781 -10.53125 -15.929688 -15.070312 -15.078125 -20.375 C -14.222656 -25.6875 -13.289062 -31.441406 -12.28125 -37.640625 C -11.28125 -43.835938 -10.304688 -49.734375 -9.359375 -55.328125 C -8.421875 -60.921875 -7.519531 -65.941406 -6.65625 -70.390625 C -5.800781 -74.835938 -5.171875 -78.0625 -4.765625 -80.0625 C -6.953125 -81.101562 -8.46875 -81.878906 -9.3125 -82.390625 C -10.15625 -82.898438 -11.085938 -84.28125 -12.109375 -86.53125 C -13.054688 -88.46875 -13.40625 -91.269531 -13.15625 -94.9375 C -12.90625 -98.601562 -12.226562 -102.269531 -11.125 -105.9375 C -10.03125 -109.601562 -8.566406 -112.910156 -6.734375 -115.859375 C -4.910156 -118.816406 -2.820312 -120.660156 -0.46875 -121.390625 C 3.90625 -122.722656 7.421875 -122.253906 10.078125 -119.984375 C 12.734375 -117.722656 14.671875 -115.15625 15.890625 -112.28125 C 16.828125 -110.34375 17.460938 -107.710938 17.796875 -104.390625 C 18.128906 -101.078125 17.8125 -97.910156 16.84375 -94.890625 C 17.414062 -94.710938 18.148438 -94.546875 19.046875 -94.390625 C 19.953125 -94.242188 21.269531 -94.4375 23 -94.96875 C 25.5 -95.726562 27.207031 -96.421875 28.125 -97.046875 C 29.039062 -97.671875 30.59375 -98.316406 32.78125 -98.984375 C 35.425781 -99.796875 37.8125 -99.800781 39.9375 -99 C 42.0625 -98.195312 43.972656 -96.984375 45.671875 -95.359375 C 47.367188 -93.742188 48.835938 -91.890625 50.078125 -89.796875 C 51.316406 -87.703125 52.300781 -85.738281 53.03125 -83.90625 C 54.695312 -80.144531 54.925781 -75.769531 53.71875 -70.78125 C 52.507812 -65.800781 50.875 -60.257812 48.8125 -54.15625 C 47.570312 -50.363281 46.457031 -46.175781 45.46875 -41.59375 C 44.476562 -37.019531 44.613281 -33.21875 45.875 -30.1875 C 46.820312 -28.25 47.875 -26.773438 49.03125 -25.765625 C 50.195312 -24.753906 52.570312 -24.796875 56.15625 -25.890625 C 58.820312 -26.710938 61.457031 -28.585938 64.0625 -31.515625 C 66.664062 -34.453125 69.179688 -37.957031 71.609375 -42.03125 C 74.035156 -46.113281 76.328125 -50.488281 78.484375 -55.15625 C 80.640625 -59.832031 82.585938 -64.359375 84.328125 -68.734375 C 86.066406 -73.117188 87.484375 -77.015625 88.578125 -80.421875 C 89.671875 -83.835938 90.492188 -86.304688 91.046875 -87.828125 C 91.453125 -89.335938 92.207031 -90.515625 93.3125 -91.359375 C 94.425781 -92.210938 95.519531 -92.546875 96.59375 -92.359375 C 97.664062 -92.179688 98.535156 -91.421875 99.203125 -90.078125 C 99.867188 -88.742188 99.863281 -86.695312 99.1875 -83.9375 C 98.726562 -82.070312 97.890625 -79.078125 96.671875 -74.953125 C 95.453125 -70.828125 93.882812 -66.164062 91.96875 -60.96875 C 90.050781 -55.769531 87.820312 -50.34375 85.28125 -44.6875 C 82.738281 -39.03125 79.878906 -33.707031 76.703125 -28.71875 C 73.535156 -23.738281 70.160156 -19.414062 66.578125 -15.75 C 63.003906 -12.09375 59.265625 -9.664062 55.359375 -8.46875 C 51.296875 -7.226562 47.691406 -6.984375 44.546875 -7.734375 C 41.410156 -8.484375 38.675781 -9.738281 36.34375 -11.5 C 34.007812 -13.269531 32.070312 -15.410156 30.53125 -17.921875 C 29 -20.441406 27.945312 -22.90625 27.375 -25.3125 C 26.957031 -27.21875 26.859375 -29.359375 27.078125 -31.734375 C 27.296875 -34.109375 27.640625 -36.609375 28.109375 -39.234375 C 28.585938 -41.859375 29.144531 -44.503906 29.78125 -47.171875 C 30.425781 -49.847656 30.960938 -52.445312 31.390625 -54.96875 C 32.640625 -60.320312 33.597656 -64.847656 34.265625 -68.546875 C 34.929688 -72.242188 34.929688 -75.191406 34.265625 -77.390625 C 33.835938 -78.796875 33.140625 -79.953125 32.171875 -80.859375 C 31.203125 -81.765625 30.019531 -82 28.625 -81.5625 C 27.6875 -81.28125 27.035156 -81.039062 26.671875 -80.84375 C 26.304688 -80.644531 25.925781 -80.484375 25.53125 -80.359375 C 25.132812 -80.242188 24.597656 -80.035156 23.921875 -79.734375 C 23.253906 -79.441406 22.21875 -79.078125 20.8125 -78.640625 C 18.78125 -78.023438 16.960938 -77.816406 15.359375 -78.015625 C 13.753906 -78.210938 12.285156 -78.273438 10.953125 -78.203125 C 10.648438 -76.910156 9.957031 -74.132812 8.875 -69.875 C 7.789062 -65.613281 6.539062 -60.613281 5.125 -54.875 C 3.71875 -49.144531 2.222656 -43.132812 0.640625 -36.84375 C -0.929688 -30.550781 -2.414062 -24.671875 -3.8125 -19.203125 C -5.21875 -13.734375 -6.40625 -9.097656 -7.375 -5.296875 C -8.351562 -1.492188 -8.984375 0.785156 -9.265625 1.546875 Z M -9.265625 1.546875 "/></g></g><g transform="translate(657.543933, 617.144383)"><g><path d="M 105.9375 -44.203125 C 104.9375 -47.484375 104.140625 -51.335938 103.546875 -55.765625 C 102.960938 -60.203125 102.535156 -64.816406 102.265625 -69.609375 C 101.992188 -74.410156 101.757812 -79.085938 101.5625 -83.640625 C 101.375 -88.191406 101.164062 -92.222656 100.9375 -95.734375 C 100.625 -100.078125 99.585938 -103.175781 97.828125 -105.03125 C 96.078125 -106.894531 93.867188 -107.421875 91.203125 -106.609375 C 89.953125 -106.222656 87.820312 -104.375 84.8125 -101.0625 C 81.8125 -97.75 78.988281 -92.738281 76.34375 -86.03125 C 73.695312 -79.332031 71.703125 -70.773438 70.359375 -60.359375 C 69.015625 -49.953125 69.320312 -37.359375 71.28125 -22.578125 C 68.789062 -20.109375 66.285156 -18.234375 63.765625 -16.953125 C 62.453125 -16.203125 61.273438 -15.582031 60.234375 -15.09375 C 57.160156 -13.988281 54.972656 -13.875 53.671875 -14.75 C 52.367188 -15.632812 51.65625 -18.535156 51.53125 -23.453125 C 51.488281 -25.835938 51.546875 -29.703125 51.703125 -35.046875 C 51.859375 -40.390625 51.84375 -46.148438 51.65625 -52.328125 C 51.476562 -58.515625 51.101562 -64.640625 50.53125 -70.703125 C 49.957031 -76.773438 49.023438 -81.914062 47.734375 -86.125 C 46.828125 -89.09375 45.695312 -90.96875 44.34375 -91.75 C 43 -92.539062 41.390625 -92.648438 39.515625 -92.078125 C 38.109375 -91.648438 36.003906 -90.148438 33.203125 -87.578125 C 30.398438 -85.015625 27.65625 -80.84375 24.96875 -75.0625 C 22.289062 -69.28125 20.191406 -61.753906 18.671875 -52.484375 C 17.148438 -43.222656 16.941406 -31.753906 18.046875 -18.078125 L 17.90625 -18.546875 C 17.976562 -17.203125 18.050781 -15.859375 18.125 -14.515625 C 18.144531 -13.328125 18.265625 -12.082031 18.484375 -10.78125 C 18.710938 -9.488281 18.84375 -8.25 18.875 -7.0625 L 8.71875 1.6875 C 8.03125 2.238281 7.125 2.769531 6 3.28125 C 4.875 3.800781 3.71875 3.941406 2.53125 3.703125 C 1.351562 3.472656 0.269531 2.566406 -0.71875 0.984375 C -1.71875 -0.585938 -2.351562 -3.210938 -2.625 -6.890625 L -6.578125 -72.59375 C -6.734375 -74.769531 -6.9375 -76.84375 -7.1875 -78.8125 C -7.40625 -80.613281 -7.722656 -82.347656 -8.140625 -84.015625 C -8.554688 -85.691406 -9.097656 -87.023438 -9.765625 -88.015625 C -7.484375 -90.085938 -5.421875 -91.742188 -3.578125 -92.984375 C -1.742188 -94.234375 -0.25 -95.207031 0.90625 -95.90625 C 2.320312 -96.84375 3.578125 -97.484375 4.671875 -97.828125 C 9.671875 -99.359375 12.632812 -95.5625 13.5625 -86.4375 C 13.695312 -83.75 13.875 -79.789062 14.09375 -74.5625 C 15.914062 -79.207031 17.992188 -83.726562 20.328125 -88.125 C 22.671875 -92.519531 25.148438 -96.570312 27.765625 -100.28125 C 30.390625 -103.988281 33.21875 -107.160156 36.25 -109.796875 C 39.289062 -112.429688 42.535156 -114.273438 45.984375 -115.328125 C 48.640625 -116.140625 51.101562 -116.039062 53.375 -115.03125 C 55.65625 -114.03125 57.695312 -112.390625 59.5 -110.109375 C 61.300781 -107.835938 62.816406 -104.96875 64.046875 -101.5 C 65.285156 -98.03125 66.242188 -94.351562 66.921875 -90.46875 C 68.410156 -94.507812 70.164062 -98.675781 72.1875 -102.96875 C 74.207031 -107.257812 76.488281 -111.25 79.03125 -114.9375 C 81.582031 -118.625 84.394531 -121.875 87.46875 -124.6875 C 90.539062 -127.507812 93.875 -129.472656 97.46875 -130.578125 C 101.675781 -131.859375 105.296875 -131.59375 108.328125 -129.78125 C 111.367188 -127.976562 113.914062 -125.253906 115.96875 -121.609375 C 118.03125 -117.960938 119.554688 -113.8125 120.546875 -109.15625 C 121.535156 -104.507812 122.210938 -99.9375 122.578125 -95.4375 L 124.28125 -61.359375 C 124.945312 -53.015625 127.78125 -49.609375 132.78125 -51.140625 C 136.6875 -52.328125 140.410156 -55.515625 143.953125 -60.703125 C 147.503906 -65.890625 150.710938 -71.742188 153.578125 -78.265625 C 156.453125 -84.796875 159.007812 -91.390625 161.25 -98.046875 C 163.488281 -104.710938 165.429688 -110.09375 167.078125 -114.1875 C 167.679688 -115.5625 168.460938 -116.484375 169.421875 -116.953125 C 170.390625 -117.421875 171.3125 -117.488281 172.1875 -117.15625 C 173.070312 -116.832031 173.738281 -116.054688 174.1875 -114.828125 C 174.644531 -113.597656 174.691406 -111.90625 174.328125 -109.75 C 172.878906 -103.320312 170.90625 -96.09375 168.40625 -88.0625 C 165.90625 -80.03125 162.84375 -72.296875 159.21875 -64.859375 C 155.601562 -57.429688 151.34375 -50.828125 146.4375 -45.046875 C 141.539062 -39.273438 135.804688 -35.382812 129.234375 -33.375 C 127.046875 -32.707031 124.828125 -32.285156 122.578125 -32.109375 C 120.335938 -31.941406 118.125 -32.207031 115.9375 -32.90625 C 113.75 -33.601562 111.785156 -34.835938 110.046875 -36.609375 C 108.304688 -38.390625 106.9375 -40.921875 105.9375 -44.203125 Z M 105.9375 -44.203125 "/></g></g><g transform="translate(829.83844, 564.427429)"><g><path d="M -18.65625 -142.21875 C -21.25 -141.757812 -23.660156 -142.253906 -25.890625 -143.703125 C -28.128906 -145.148438 -29.566406 -147.75 -30.203125 -151.5 C -30.609375 -153.9375 -30.484375 -156.320312 -29.828125 -158.65625 C -29.179688 -161 -28.171875 -163.144531 -26.796875 -165.09375 C -25.421875 -167.050781 -23.738281 -168.675781 -21.75 -169.96875 C -19.757812 -171.269531 -17.566406 -172.203125 -15.171875 -172.765625 C -10.972656 -173.535156 -7.742188 -172.34375 -5.484375 -169.1875 C -3.234375 -166.03125 -1.859375 -162.21875 -1.359375 -157.75 C -0.992188 -155.476562 -0.828125 -152.710938 -0.859375 -149.453125 C -0.890625 -146.203125 -1.320312 -142.738281 -2.15625 -139.0625 C -3 -135.382812 -4.257812 -131.664062 -5.9375 -127.90625 C -7.613281 -124.15625 -9.882812 -120.550781 -12.75 -117.09375 C -14.03125 -115.675781 -15.109375 -114.875 -15.984375 -114.6875 C -16.867188 -114.507812 -17.578125 -114.722656 -18.109375 -115.328125 C -18.640625 -115.929688 -18.953125 -116.816406 -19.046875 -117.984375 C -19.148438 -119.160156 -18.957031 -120.332031 -18.46875 -121.5 C -17.269531 -123.757812 -16.234375 -126.941406 -15.359375 -131.046875 C -14.484375 -135.160156 -14.269531 -139.367188 -14.71875 -143.671875 C -15.46875 -143.273438 -16.125 -142.898438 -16.6875 -142.546875 C -17.257812 -142.203125 -17.914062 -142.09375 -18.65625 -142.21875 Z M -18.65625 -142.21875 "/></g></g><g transform="translate(866.875899, 553.095077)"><g><path d="M 30.609375 -18.078125 C 31.734375 -17.742188 33.035156 -17.800781 34.515625 -18.25 C 36.003906 -18.707031 37.398438 -19.472656 38.703125 -20.546875 C 40.003906 -21.628906 41.144531 -22.921875 42.125 -24.421875 C 43.113281 -25.921875 43.664062 -27.628906 43.78125 -29.546875 C 43.875 -31.453125 43.113281 -33.910156 41.5 -36.921875 C 39.894531 -39.929688 37.867188 -43.070312 35.421875 -46.34375 C 32.972656 -49.613281 30.394531 -52.882812 27.6875 -56.15625 C 24.976562 -59.425781 22.597656 -62.457031 20.546875 -65.25 C 18.890625 -67.3125 17.4375 -69.257812 16.1875 -71.09375 C 15.03125 -72.613281 13.925781 -74.113281 12.875 -75.59375 C 11.832031 -77.070312 11.054688 -78.078125 10.546875 -78.609375 C 10.160156 -77.117188 9.421875 -74.664062 8.328125 -71.25 C 7.234375 -67.832031 6.019531 -64.253906 4.6875 -60.515625 C 3.351562 -56.773438 2.0625 -53.304688 0.8125 -50.109375 C -0.425781 -46.910156 -1.296875 -44.726562 -1.796875 -43.5625 C -2.597656 -41.757812 -3.550781 -40.5625 -4.65625 -39.96875 C -5.757812 -39.375 -6.8125 -39.3125 -7.8125 -39.78125 C -8.8125 -40.25 -9.550781 -41.132812 -10.03125 -42.4375 C -10.519531 -43.738281 -10.425781 -45.519531 -9.75 -47.78125 C -9.195312 -49.320312 -8.398438 -51.742188 -7.359375 -55.046875 C -6.316406 -58.359375 -5.300781 -61.742188 -4.3125 -65.203125 C -3.320312 -68.671875 -2.390625 -71.773438 -1.515625 -74.515625 C -0.648438 -77.265625 -0.210938 -78.898438 -0.203125 -79.421875 C -0.273438 -80.765625 -1.207031 -82.269531 -3 -83.9375 C -4.789062 -85.613281 -5.703125 -87.898438 -5.734375 -90.796875 C -5.773438 -93.179688 -5.144531 -96.148438 -3.84375 -99.703125 C -2.539062 -103.265625 -0.765625 -106.671875 1.484375 -109.921875 C 3.742188 -113.179688 6.253906 -115.875 9.015625 -118 C 11.773438 -120.125 14.597656 -120.945312 17.484375 -120.46875 C 19.910156 -119.832031 21.972656 -118.960938 23.671875 -117.859375 C 25.378906 -116.753906 26.316406 -115.375 26.484375 -113.71875 C 26.398438 -112.851562 26.238281 -111.695312 26 -110.25 C 25.757812 -108.8125 25.289062 -107 24.59375 -104.8125 C 23.894531 -102.632812 22.800781 -99.78125 21.3125 -96.25 C 22.882812 -92.789062 24.550781 -89.707031 26.3125 -87 C 28.070312 -84.300781 29.6875 -81.976562 31.15625 -80.03125 C 32.90625 -77.664062 34.660156 -75.550781 36.421875 -73.6875 C 38.691406 -71.3125 41.0625 -68.878906 43.53125 -66.390625 C 46 -63.898438 48.300781 -61.394531 50.4375 -58.875 C 52.570312 -56.363281 54.410156 -53.976562 55.953125 -51.71875 C 57.492188 -49.457031 58.375 -47.421875 58.59375 -45.609375 C 58.9375 -42.816406 58.550781 -39.195312 57.4375 -34.75 C 56.320312 -30.300781 54.617188 -25.804688 52.328125 -21.265625 C 50.035156 -16.722656 47.125 -12.539062 43.59375 -8.71875 C 40.0625 -4.90625 35.957031 -2.285156 31.28125 -0.859375 C 27.988281 0.148438 24.507812 0.109375 20.84375 -0.984375 C 17.175781 -2.085938 13.867188 -3.679688 10.921875 -5.765625 C 7.972656 -7.859375 5.582031 -10.078125 3.75 -12.421875 C 1.925781 -14.773438 1.191406 -16.769531 1.546875 -18.40625 C 1.898438 -20.582031 2.300781 -22.332031 2.75 -23.65625 C 3.195312 -24.988281 3.988281 -26.597656 5.125 -28.484375 C 5.601562 -29.140625 6.21875 -29.925781 6.96875 -30.84375 C 7.613281 -31.550781 8.566406 -32.351562 9.828125 -33.25 C 11.085938 -34.144531 12.554688 -35.191406 14.234375 -36.390625 C 17.273438 -32.023438 19.835938 -28.664062 21.921875 -26.3125 C 24.015625 -23.96875 25.695312 -22.132812 26.96875 -20.8125 C 28.4375 -19.375 29.648438 -18.460938 30.609375 -18.078125 Z M 30.609375 -18.078125 "/></g></g></g></svg>